<svg xmlns="http://www.w3.org/2000/svg" xmlns:xlink="http://www.w3.org/1999/xlink" width="1600" zoomAndPan="magnify" viewBox="0 0 1200 269.999989" height="360" preserveAspectRatio="xMidYMid meet" version="1.0"><defs><g/><clipPath id="da56443d48"><path d="M 0 2.195312 L 354.746094 2.195312 L 354.746094 267.726562 L 0 267.726562 Z M 0 2.195312 " clip-rule="nonzero"/></clipPath></defs><g clip-path="url(#da56443d48)"><path fill="#ee2d36" d="M 146.929688 126.226562 L 168.894531 104.449219 C 173.539062 99.839844 181.035156 99.871094 185.640625 104.515625 L 207.875 126.902344 C 212.496094 131.554688 212.464844 139.074219 207.816406 143.691406 L 185.851562 165.46875 C 181.203125 170.074219 173.710938 170.042969 169.101562 165.398438 L 146.863281 143.011719 C 142.242188 138.359375 142.273438 130.839844 146.929688 126.226562 Z M 337.515625 93.429688 L 263.058594 18.453125 C 241.632812 -3.113281 206.804688 -3.25 185.21875 18.144531 L 233.675781 66.941406 L 291.828125 125.492188 L 292.03125 125.691406 L 292.015625 125.703125 C 297.183594 131.125 297.09375 139.640625 291.75 144.941406 L 233.148438 203.042969 L 232.953125 203.238281 C 228.199219 207.769531 221.355469 200.367188 226.019531 195.742188 L 258.621094 163.421875 C 274.132812 148.039062 274.230469 122.976562 258.832031 107.472656 L 173.363281 21.417969 C 150.320312 -1.785156 112.847656 -1.9375 89.625 21.09375 L 17.550781 92.554688 C -5.726562 115.628906 -5.871094 153.230469 17.226562 176.484375 L 91.691406 251.460938 C 113.113281 273.027344 147.933594 273.164062 169.523438 251.761719 L 121.070312 202.972656 L 62.914062 144.421875 L 62.714844 144.21875 L 62.722656 144.203125 C 57.5625 138.789062 57.644531 130.265625 62.988281 124.972656 L 121.589844 66.871094 L 121.792969 66.675781 C 126.546875 62.144531 133.390625 69.542969 128.71875 74.171875 L 96.128906 106.492188 C 80.613281 121.875 80.515625 146.941406 95.910156 162.441406 L 181.375 248.496094 C 204.425781 271.699219 241.890625 271.851562 265.113281 248.820312 L 337.191406 177.359375 C 360.464844 154.285156 360.609375 116.6875 337.515625 93.429688 " fill-opacity="1" fill-rule="nonzero"/></g><g fill="#ffffff" fill-opacity="1"><g transform="translate(372.645491, 192.796449)"><g><path d="M 4.941406 -53.574219 C 4.941406 -19.144531 26.09375 2.007812 60.367188 2.007812 C 92.636719 2.007812 111.78125 -15.59375 114.558594 -45.546875 L 88.003906 -45.546875 C 85.535156 -28.871094 76.117188 -20.378906 60.058594 -20.378906 C 42.613281 -20.378906 31.03125 -31.960938 31.03125 -54.039062 L 31.03125 -58.667969 C 31.03125 -80.746094 42.613281 -92.328125 60.058594 -92.328125 C 76.117188 -92.328125 85.378906 -83.835938 88.003906 -67.160156 L 114.558594 -67.160156 C 111.78125 -97.113281 92.636719 -114.714844 60.367188 -114.714844 C 26.09375 -114.714844 4.941406 -93.5625 4.941406 -59.132812 Z M 4.941406 -53.574219 "/></g></g></g><g fill="#ffffff" fill-opacity="1"><g transform="translate(491.814822, 192.796449)"><g><path d="M 48.789062 2.007812 C 76.269531 2.007812 92.636719 -14.359375 92.636719 -39.214844 L 92.636719 -42.613281 C 92.636719 -67.46875 76.269531 -83.835938 48.789062 -83.835938 C 21.304688 -83.835938 4.785156 -67.46875 4.785156 -42.613281 L 4.785156 -39.214844 C 4.785156 -14.359375 21.304688 2.007812 48.789062 2.007812 Z M 48.789062 -18.679688 C 36.746094 -18.679688 29.644531 -25.9375 29.644531 -41.070312 C 29.644531 -55.890625 36.746094 -63.148438 48.789062 -63.148438 C 60.675781 -63.148438 67.933594 -55.890625 67.933594 -41.070312 C 67.933594 -25.9375 60.675781 -18.679688 48.789062 -18.679688 Z M 48.789062 -18.679688 "/></g></g></g><g fill="#ffffff" fill-opacity="1"><g transform="translate(589.373155, 192.796449)"><g><path d="M 67.777344 -66.234375 C 62.21875 -77.660156 51.875 -83.835938 39.988281 -83.835938 C 20.6875 -83.835938 4.785156 -67.933594 4.785156 -42.457031 L 4.785156 -39.371094 C 4.785156 -13.894531 20.6875 2.007812 39.988281 2.007812 C 55.582031 2.007812 68.242188 -7.410156 72.410156 -24.085938 L 80.128906 0 L 92.328125 0 L 92.328125 -112.707031 L 67.777344 -112.707031 Z M 48.632812 -19.300781 C 36.746094 -19.300781 29.644531 -26.402344 29.644531 -40.761719 C 29.644531 -55.425781 36.746094 -62.53125 48.632812 -62.53125 C 60.214844 -62.53125 67.777344 -55.117188 67.777344 -40.761719 C 67.777344 -26.710938 60.214844 -19.300781 48.632812 -19.300781 Z M 48.632812 -19.300781 "/></g></g></g><g fill="#ffffff" fill-opacity="1"><g transform="translate(691.716758, 192.796449)"><g><path d="M 91.09375 -45.855469 C 91.09375 -67.933594 75.191406 -83.835938 48.941406 -83.835938 C 21.304688 -83.835938 4.785156 -67.46875 4.785156 -42.457031 L 4.785156 -39.371094 C 4.785156 -14.359375 21.304688 2.007812 48.480469 2.007812 C 74.261719 2.007812 87.230469 -11.734375 89.703125 -27.328125 L 64.074219 -27.328125 C 61.757812 -21.613281 57.589844 -17.445312 47.246094 -17.445312 C 36.746094 -17.445312 30.261719 -22.695312 28.871094 -35.511719 L 90.476562 -35.511719 C 90.9375 -38.90625 91.09375 -41.53125 91.09375 -45.855469 Z M 48.324219 -65 C 58.824219 -65 65.152344 -60.058594 66.390625 -49.097656 L 29.027344 -49.097656 C 30.878906 -60.214844 37.519531 -65 48.324219 -65 Z M 48.324219 -65 "/></g></g></g><g fill="#ffffff" fill-opacity="1"><g transform="translate(787.731406, 192.796449)"><g><path d="M 40.761719 -90.164062 L 40.761719 0 L 66.542969 0 L 66.542969 -90.164062 L 104.0625 -90.164062 L 104.0625 -112.707031 L 3.085938 -112.707031 L 3.085938 -90.164062 Z M 40.761719 -90.164062 "/></g></g></g><g fill="#ffffff" fill-opacity="1"><g transform="translate(894.860336, 192.796449)"><g><path d="M 64.074219 -42.148438 C 64.074219 -26.710938 57.125 -19.761719 47.246094 -19.761719 C 37.363281 -19.761719 32.730469 -24.546875 32.730469 -38.289062 L 32.730469 -81.828125 L 8.183594 -81.828125 L 8.183594 -34.738281 C 8.183594 -10.5 20.6875 2.007812 38.90625 2.007812 C 53.265625 2.007812 64.535156 -6.019531 68.859375 -23.777344 L 76.425781 0 L 88.777344 0 L 88.777344 -81.828125 L 64.074219 -81.828125 Z M 64.074219 -42.148438 "/></g></g></g><g fill="#ffffff" fill-opacity="1"><g transform="translate(993.653571, 192.796449)"><g><path d="M 62.53125 -83.835938 C 50.488281 -83.835938 40.296875 -77.660156 34.738281 -66.234375 L 34.738281 -112.707031 L 10.035156 -112.707031 L 10.035156 0 L 22.386719 0 L 29.953125 -24.085938 C 34.273438 -7.410156 46.78125 2.007812 62.53125 2.007812 C 81.675781 2.007812 97.578125 -13.894531 97.578125 -39.371094 L 97.578125 -42.457031 C 97.578125 -67.933594 81.675781 -83.835938 62.53125 -83.835938 Z M 53.882812 -19.300781 C 42.148438 -19.300781 34.738281 -26.710938 34.738281 -40.761719 C 34.738281 -55.117188 42.148438 -62.53125 53.882812 -62.53125 C 65.617188 -62.53125 72.875 -55.425781 72.875 -40.761719 C 72.875 -26.402344 65.617188 -19.300781 53.882812 -19.300781 Z M 53.882812 -19.300781 "/></g></g></g><g fill="#ffffff" fill-opacity="1"><g transform="translate(1095.997174, 192.796449)"><g><path d="M 91.09375 -45.855469 C 91.09375 -67.933594 75.191406 -83.835938 48.941406 -83.835938 C 21.304688 -83.835938 4.785156 -67.46875 4.785156 -42.457031 L 4.785156 -39.371094 C 4.785156 -14.359375 21.304688 2.007812 48.480469 2.007812 C 74.261719 2.007812 87.230469 -11.734375 89.703125 -27.328125 L 64.074219 -27.328125 C 61.757812 -21.613281 57.589844 -17.445312 47.246094 -17.445312 C 36.746094 -17.445312 30.261719 -22.695312 28.871094 -35.511719 L 90.476562 -35.511719 C 90.9375 -38.90625 91.09375 -41.53125 91.09375 -45.855469 Z M 48.324219 -65 C 58.824219 -65 65.152344 -60.058594 66.390625 -49.097656 L 29.027344 -49.097656 C 30.878906 -60.214844 37.519531 -65 48.324219 -65 Z M 48.324219 -65 "/></g></g></g></svg>